<svg width="81" height="80" viewBox="0 0 81 80" fill="none" xmlns="http://www.w3.org/2000/svg">
<ellipse cx="40.2215" cy="40" rx="40.2215" ry="34" fill="#E96969"/>
<path d="M15.1435 47.7305C15.9377 47.9909 16.6604 48.1992 17.3114 48.3555C18.5744 43.2773 20.0132 37.2812 21.6278 30.3672L16.9208 29.8594C16.6213 29.0391 16.4716 28.1081 16.4716 27.0664C16.4716 26.2721 16.5627 25.4974 16.745 24.7422C18.633 24.3776 20.8075 24.1172 23.2685 23.9609C25.7424 23.7917 27.8648 23.707 29.6356 23.707C30.9117 23.707 31.8687 23.7135 32.5067 23.7266L33.7372 24.4297C35.9247 30.4323 38.1448 38.5508 40.3974 48.7852C40.4234 48.8893 40.469 49.0977 40.5341 49.4102C40.6122 49.7227 40.6708 50.0221 40.7099 50.3086C40.7489 50.582 40.7685 50.8424 40.7685 51.0898C40.7685 52.1836 40.3778 53.069 39.5966 53.7461C38.5028 54.1758 37.1812 54.3906 35.6317 54.3906C34.9026 54.3906 34.1669 54.3125 33.4247 54.1562C32.6825 54 32.1812 53.7591 31.9208 53.4336L32.1552 48.3945L31.6669 45.7773C30.8205 45.8294 29.8244 45.8555 28.6786 45.8555C27.4547 45.8555 26.3088 45.8164 25.2411 45.7383L25.0067 46.793C24.4989 49.0586 24.0823 50.6667 23.7567 51.6172C23.4442 52.5677 22.9755 53.2708 22.3505 53.7266C21.7385 54.1823 20.8205 54.4102 19.5966 54.4102C18.8023 54.4102 18.0015 54.306 17.1942 54.0977C16.3869 53.9023 15.6578 53.6354 15.0067 53.2969C14.3557 52.9583 13.8674 52.5938 13.5419 52.2031C13.5419 51.2656 13.6851 50.3737 13.9716 49.5273C14.258 48.681 14.6487 48.082 15.1435 47.7305ZM28.8349 30.543H27.9364L26.5302 40.1719H30.9052L28.8349 30.543ZM42.1552 46.0312C42.4286 45.4844 42.7346 45.0547 43.0731 44.7422C43.4247 44.4167 43.7632 44.1823 44.0888 44.0391C44.4273 43.8828 44.8375 43.7331 45.3192 43.5898C45.6838 43.4987 45.9573 43.4076 46.1395 43.3164C46.7776 43.5117 47.2984 43.694 47.702 43.8633C48.1187 44.0195 48.5679 44.2604 49.0497 44.5859L54.5966 31.4219L49.2255 31.168L49.1083 37.7891L45.495 38.5703C45.0653 38.1146 44.6096 37.3464 44.1278 36.2656C43.6591 35.1719 43.2619 33.974 42.9364 32.6719C42.6239 31.3698 42.4677 30.1849 42.4677 29.1172C42.4677 28.4922 42.5198 27.9779 42.6239 27.5742C42.9234 26.3372 43.4573 25.3932 44.2255 24.7422C44.9937 24.0911 45.9442 23.7526 47.077 23.7266C48.6916 23.7266 50.4364 23.9805 52.3114 24.4883C54.1864 24.9831 55.8596 25.6602 57.331 26.5195C57.8127 25.7904 58.5289 25.1458 59.4794 24.5859C60.4429 24.013 61.5367 23.7266 62.7606 23.7266C63.6591 24.2214 64.3557 24.9701 64.8505 25.9727C65.3583 26.9753 65.6122 28.0885 65.6122 29.3125C65.6122 30.3151 65.4494 31.2852 65.1239 32.2227C64.3557 32.444 63.6395 32.5547 62.9755 32.5547C62.65 33.2188 62.1356 34.0911 61.4325 35.1719C60.7424 36.2526 59.8049 37.6849 58.62 39.4688C57.3961 41.3177 56.452 42.75 55.788 43.7656C55.1369 44.7682 54.5901 45.6667 54.1474 46.4609L54.2255 46.4805L59.6161 46.8516L61.8036 41.3828L65.0067 41.9883C65.202 42.4961 65.3648 43.1797 65.495 44.0391C65.6252 44.8854 65.6903 45.7643 65.6903 46.6758C65.6903 47.7826 65.5797 48.8307 65.3583 49.8203C65.1369 50.7969 64.7919 51.6042 64.3231 52.2422C63.7893 52.9714 63.1773 53.5117 62.4872 53.8633C61.7971 54.2148 61.0614 54.3906 60.2802 54.3906C59.0302 54.3906 57.4937 54.0195 55.6708 53.2773C53.8479 52.5221 52.2659 51.7539 50.9247 50.9727C50.2867 52.0664 49.5966 52.8932 48.8544 53.4531C48.1252 54 47.1487 54.3125 45.9247 54.3906C45.2867 54.013 44.6682 53.349 44.0692 52.3984C43.4703 51.4349 42.9885 50.3737 42.6239 49.2148C42.2724 48.043 42.1161 46.9818 42.1552 46.0312Z" fill="white"/>
</svg>
